# xmcd CD database file
#
# Track frame offsets:
#        150
#        10050
#        41775
#        65550
#        94575
#        116550
#        134850
#        148500
#        150900
#        165600
#        173550
#        195975
#        237375
#        249075
#
# Disc length: 3340 seconds
#
# Revision: 0
# Processed by: cddbd v1.5.2PL0 Copyright (c) Steve Scherf et al.
# Submitted via: CUERipper 2.1.5
#
DISCID=b10d0a0e
DTITLE=Fleetwood Mac - 1968-06-07/1968-06-09: Carousel Ballroom, San Francisco, CA, USA
DYEAR=1968
DGENRE=
TTITLE0=Fleetwood Mac feat. Paul Butterfield - Stop Messin’ ’Round
TTITLE1=Fleetwood Mac feat. Paul Butterfield - I Loved Another Woman
TTITLE2=Fleetwood Mac feat. Paul Butterfield - I Believe
TTITLE3=Fleetwood Mac feat. Paul Butterfield - The Sun Is Shining
TTITLE4=Fleetwood Mac feat. Paul Butterfield - Long Tall Sally
TTITLE5=Willie &amp - The Hand Jive
TTITLE6=&gt - Tuti Frutti
TTITLE7=[dialogue] - Thanks by Peter Green, Announcer Band Intros and Crowd Noise Before Encore
TTITLE8=Ready Teddy
TTITLE9=I Need Your Love So Bad
TTITLE10=I Believe
TTITLE11=Shake Your Moneymaker
TTITLE12=Ready Teddy
TTITLE13=[dialogue] - Peter Green Says Thanks, Announcer Outro and Crowd Noise
EXTD=
EXTT0=
EXTT1=
EXTT2=
EXTT3=
EXTT4=
EXTT5=
EXTT6=
EXTT7=
EXTT8=
EXTT9=
EXTT10=
EXTT11=
EXTT12=
EXTT13=
PLAYORDER=
